inDegrees=no
num_controls=7
num_derivatives=13
num_iterations=120
num_multipliers=7
num_parameters=0
num_slacks=7
num_states=26
objective=0.443802
objective_accelerations=0.058607
objective_balance=0.003759
objective_effort=0.024073
objective_height=0.351885
objective_ligament=0.005479
solver_duration=1957.845747
status=Solve_Succeeded
success=true
DataType=double
version=3
OpenSimVersion=4.5
endheader
time	/jointset/ground_pelvis/pelvis_tilt/value	/jointset/ground_pelvis/pelvis_tx/value	/jointset/ground_pelvis/pelvis_ty/value	/jointset/hip_l/hip_flexion_l/value	/jointset/hip_l/hip_adduction_l/value	/jointset/hip_l/hip_rotation_l/value	/jointset/back/lumbar_extension/value	/jointset/patellofemoral_l/patellar_flexion_l/value	/jointset/knee_l/knee_flexion_l/value	/jointset/knee_l/knee_adduction_l/value	/jointset/knee_l/knee_rotation_l/value	/jointset/ankle_l/ankle_angle_l/value	/jointset/subtalar_l/subtalar_angle_l/value	/jointset/ground_pelvis/pelvis_tilt/speed	/jointset/ground_pelvis/pelvis_tx/speed	/jointset/ground_pelvis/pelvis_ty/speed	/jointset/hip_l/hip_flexion_l/speed	/jointset/hip_l/hip_adduction_l/speed	/jointset/hip_l/hip_rotation_l/speed	/jointset/back/lumbar_extension/speed	/jointset/patellofemoral_l/patellar_flexion_l/speed	/jointset/knee_l/knee_flexion_l/speed	/jointset/knee_l/knee_adduction_l/speed	/jointset/knee_l/knee_rotation_l/speed	/jointset/ankle_l/ankle_angle_l/speed	/jointset/subtalar_l/subtalar_angle_l/speed	/forceset/tau_hip_flexion_l	/forceset/tau_hip_adduction_l	/forceset/tau_hip_rotation_l	/forceset/tau_knee_flexion_l	/forceset/tau_ankle_angle_l	/forceset/tau_subtalar_angle_l	/forceset/tau_lumbar_extension	lambda_cid13_p0	lambda_cid13_p1	lambda_cid13_p2	lambda_cid13_p3	lambda_cid13_p4	lambda_cid13_p5	lambda_cid14_p0	/jointset/ground_pelvis/pelvis_tilt/accel	/jointset/ground_pelvis/pelvis_tx/accel	/jointset/ground_pelvis/pelvis_ty/accel	/jointset/hip_l/hip_flexion_l/accel	/jointset/hip_l/hip_adduction_l/accel	/jointset/hip_l/hip_rotation_l/accel	/jointset/back/lumbar_extension/accel	/jointset/patellofemoral_l/patellar_flexion_l/accel	/jointset/knee_l/knee_flexion_l/accel	/jointset/knee_l/knee_adduction_l/accel	/jointset/knee_l/knee_rotation_l/accel	/jointset/ankle_l/ankle_angle_l/accel	/jointset/subtalar_l/subtalar_angle_l/accel	gamma_cid13_p0	gamma_cid13_p1	gamma_cid13_p2	gamma_cid13_p3	gamma_cid13_p4	gamma_cid13_p5	gamma_cid14_p0
0.5	-0.3630083039866254	-0.04799062008263327	0.7539920402375399	1.141296479141099	-0.4378837834908181	-0.2181050124188853	-0.2551324731816599	0.8122746073758578	0.8122746073765057	-0.1308273723560644	-0.1591734242979441	0.09355947635323981	-0.0415705059183544	-0.8244135122566237	-0.2376640638880803	-0.5535224428726636	2.585996726750041	-0.2032276422565105	0.7612528644835469	-0.1104125616764634	1.998296709622621	1.998296709622816	0.1228508818049911	-0.08679639193485167	0.4104490565343339	-0.02534219798216897	-0.1808311670622902	0.0227339634057128	-0.01051707938772556	-0.2126791868210401	0.07138955627359553	0.04392553617144541	0.1750431522067417	-9.927837566858964	-20.30846620446484	6.294145847713291	-6.462608328866875	-521.8309593178437	-59.8646299288616	-24.92476237772364	0.8859524756067998	0.6386517532541255	-0.4664502865890554	-1.440913397275182	0.7792039871640454	-0.2252217168986948	1.111275427895221	-1.29532464100405	-1.295324641004031	0.1181770763837309	0.1718116761788723	-0.5307246515493227	0.5670240647179238	-5.67564543903093e-07	-4.713591052101216e-07	2.782524969726655e-06	1.400601392415749e-07	-6.442713492847708e-07	1.713529328271726e-07	-4.752302262758235e-07
0.51	-0.3712061642184739	-0.05033502938200819	0.7484347214484313	1.167079341447427	-0.4398783216036765	-0.2105024411538793	-0.2561823596163295	0.8321896517947233	0.8321896517947176	-0.1295974985819806	-0.1600322340127645	0.0976362396575027	-0.04179755529074852	-0.8150424087637228	-0.2311961941522998	-0.5578212588872912	2.570218372485969	-0.1956706294669994	0.7591815748165046	-0.09961373542815655	1.984437576208392	1.984437576208235	0.1230895210583267	-0.08494453794650979	0.4048300482974987	-0.02008675297958023	-0.1865145867207262	0.02327123482702556	-0.01062511009750501	-0.2155836230456017	0.07152274912909477	0.04429200562938933	0.1793595136263606	-10.10156087197934	-20.41182340191076	6.281629715748469	-6.495174377451862	-525.639610285553	-59.45839697343532	-24.00421615848864	0.9800389819105508	0.6541248848969914	-0.3937118519836945	-1.699981744139409	0.7450543424436404	-0.210445026230314	1.056834697711718	-1.472306042295594	-1.472306042348533	-0.02840911178751658	0.1955799662552294	-0.5885141398170235	0.5016869335560411	-5.374005187384466e-07	-3.535913849477359e-07	2.748866862800294e-06	1.592316749075989e-07	-6.02963261180344e-07	2.40738584176083e-07	-4.533482404586035e-07
0.52	-0.379306843476237	-0.0526141059237939	0.7428379915805594	1.19269368315048	-0.4417970687051198	-0.2029230552724692	-0.2571257280936336	0.8519578852093157	0.8519578852086509	-0.1283662617076868	-0.1608717836464768	0.101654607833384	-0.04197267377001142	-0.8049773174396715	-0.2245975123702413	-0.5614046586252837	2.552292606095248	-0.1880694399735282	0.7566157877645304	-0.08910897020331786	1.96893450876763	1.96893450876712	0.1231235018478232	-0.08294437571443317	0.3987700308580072	-0.01495601935592387	-0.1921980063791794	0.02380850624833581	-0.01073314080733246	-0.2184880592701605	0.07165594198459525	0.04465847508733151	0.1836758750459631	-10.27935133829203	-20.51542690970405	6.270249298217982	-6.557731572804314	-529.5368401689227	-59.11127515585478	-23.08523350289931	1.024750041836877	0.6648141625097349	-0.3233670312620255	-1.870395822604904	0.7880393279560632	-0.3241211938850548	1.052463223201589	-1.624111446310727	-1.62411144631075	0.07724538361591786	0.20147332492582	-0.6189264920805991	0.542081788931446	-5.235560207193088e-07	-2.784150131519462e-07	2.773432901570394e-06	1.776209725780198e-07	-5.786204099080015e-07	3.117081080374288e-07	-4.465695392380206e-07
0.53	-0.3873035995799188	-0.05482663200345811	0.7372090053929619	1.218118490880683	-0.4436395062086155	-0.1953718387258277	-0.2579655352209081	0.8715631933343513	0.8715631933338934	-0.1271353477189168	-0.1616906714275926	0.1056103284586167	-0.04209694048860435	-0.794264049575242	-0.2178940293333617	-0.5642710437327346	2.532332550987928	-0.1804079532567807	0.7535142654629968	-0.07891675984175499	1.951877218700936	1.951877218700924	0.123066629504714	-0.08083369351311617	0.3923127502242432	-0.009908342276595213	-0.1977687131821501	0.02412135621415599	-0.01078415371605447	-0.2213530466690161	0.07168735200211511	0.04493067605319113	0.1878515624147326	-10.48750081329616	-20.56944432225444	6.247158500177582	-6.518806100212848	-533.3371119234754	-58.72487506891474	-22.16949495460559	1.111023941829911	0.6752039646494198	-0.2501571431201276	-2.109349340627263	0.7563942940789309	-0.3205296391526305	0.9929542541239871	-1.783933815821668	-1.783933815746823	-0.0460029405599312	0.21635420398024	-0.6683125969021472	0.4841710791970965	-5.087042788907833e-07	-2.061075180649755e-07	2.78445383516305e-06	1.969055767811524e-07	-5.578194884861577e-07	3.797462955634729e-07	-4.379066406900465e-07
0.54	-0.3951899412483391	-0.05697170553467905	0.7315549787757631	1.243333590262647	-0.4454050906548347	-0.1878551097803765	-0.2587053493822688	0.890990449352925	0.8909904493526798	-0.1259047723330349	-0.162488354679446	0.109499639527936	-0.04217111835405129	-0.7828944303874554	-0.2111070026815867	-0.5664127445455255	2.510350936447341	-0.1726988285182384	0.7497182675268576	-0.06911037702057822	1.933324087475325	1.933324087475813	0.1230557812701809	-0.07870346986197534	0.3854881196753648	-0.004938248726725956	-0.2033394199851291	0.02443420617996993	-0.01083516662476489	-0.2242180340678737	0.07171876201963333	0.04520287701904254	0.1920272497834964	-10.69988989663406	-20.62366765403138	6.225185465711452	-6.508977623591293	-537.2284871437145	-58.39743027978339	-21.26073013284078	1.156020306508315	0.681522885488826	-0.1784301723299703	-2.274707709258111	0.7975669323150131	-0.4630163208062107	0.9752977151243782	-1.923279678093908	-1.923279678093883	0.08645020533113813	0.2053816148905864	-0.6923964751034919	0.5265650830395645	-4.927381396561265e-07	-1.369740993366981e-07	2.780488694942363e-06	2.171807328928171e-07	-5.409372979627381e-07	4.445413024632258e-07	-4.271590982904906e-07
